<svg xmlns="http://www.w3.org/2000/svg" xmlns:xlink="http://www.w3.org/1999/xlink">
	<style>
		use { display: none; }
		:target { display: block !important; /* useragent-style */ }
		.crisp, rect { shape-rendering: crispedges; }
	</style>



	<symbol id="icon_info" overflow="visible" viewBox="0 0 14 14">
		<title>info icon</title>
		<path fill="none" d="M.5,7A6.5,6.5,0,1,0,7,.5,6.51,6.51,0,0,0,.5,7Z"/>
		<path fill="currentColor" stroke="none" d="M7.87,3.31A.87.87,0,1,0,7,4.19.86.86,0,0,0,7.87,3.31Zm-.06,7.38c0,.57-.3.91-.8.91s-.8-.34-.8-.91V6c0-.56.3-.89.8-.89a.78.78,0,0,1,.8.89Z"/>
    </symbol>

	<symbol id="icon_trash" overflow="visible" viewBox="0 0 14 14">
		<title>trash icon</title>
		<g id="Symbols" stroke="none" stroke-width="1" fill="none" fill-rule="evenodd">
			<g id="my-bag-section" transform="translate(-130.000000, -162.000000)" fill="currentColor">
				<g id="items">
					<g id="item-row_normal" transform="translate(20.000000, 54.000000)">
						<g id="item-row">
							<g id="button_remove" transform="translate(110.000000, 108.000000)">
								<g id="icon_bin">
									<polygon id="Fill-33" points="4.86111111 11.2318889 6.02777778 11.2318889 6.02777778 4.53211111 4.86111111 4.53211111"></polygon>
									<polygon id="Fill-34" points="7.97222222 11.2318889 9.13888889 11.2318889 9.13888889 4.53211111 7.97222222 4.53211111"></polygon>
									<path d="M2.53711111,12.7975556 L11.4621111,12.7975556 L11.4621111,2.52388889 L2.53711111,2.52388889 L2.53711111,12.7975556 Z M14,1.41711111 L8.16666667,1.41711111 L8.16666667,0 L5.83333333,0 L5.83333333,1.41711111 L0,1.41711111 L0,2.52388889 L1.351,2.52388889 L1.351,13.3987778 C1.351,13.7308889 1.617,14 1.94444444,14 L12.0555556,14 C12.383,14 12.649,13.7308889 12.649,13.3987778 L12.649,2.52388889 L14,2.52388889 L14,1.41711111 Z" id="Fill-35"></path>
								</g>
							</g>
						</g>
					</g>
				</g>
			</g>
		</g>
    </symbol>
	<symbol id="icon_myAccount" overflow="visible" viewBox="0 0 20 22">
		<title>icon MyAccount</title>
		<path class="st0" d="M16.5,14.9c-1.5-1.5-3.6-2.4-6.5-2.4s-5,0.9-6.5,2.4c-1.5,1.5-2.2,3.7-2.4,6.1H19C18.8,18.6,18,16.5,16.5,14.9
		z"/>
		<circle cx="10" cy="6.7" r="5.7"/>
	</symbol>
	<symbol  id="icon_myBag" overflow="visible" viewBox="0 0 20 22">
		<title>icon MyBag</title>
		<path d="M12.2110881,0 C13.2484592,0 14.0894145,0.830033891 14.0894145,1.85393258 L14.089,5 L20,5 L20,22 L0,22 L0,5 L5.95,5 L5.95,1.85393258 C5.95,0.830033891 6.79095539,0 7.82832643,0 L12.2110881,0 Z M17.8947368,7 L2.10526316,7 L2.10526316,20 L17.8947368,20 L17.8947368,7 Z M12.2110881,1.85393258 L7.82832643,1.85393258 L7.82832643,4.94382022 L12.2110881,4.94382022 L12.2110881,1.85393258 Z" fill="currentColor"></path>
		<rect x="2" y="7" height="13" width="16"></rect>
	</symbol>
	<symbol id="icon_bag" overflow="visible" viewBox="0 0 11 15">
		<!-- if you want to use the hallow one make sure to provide css fill:transparent; -->
		<title>icon bag</title>
		<path fill="none" stroke="currentColor" stroke-width="1.25" stroke-miterlimit="10" d="M7.8,4.4V1.8c0-0.8-0.6-1.1-1.2-1.1H4
	C3.3,0.7,2.8,1,2.8,1.8v2.7H0.9v9.8h8.9V4.4H7.8z M6.4,4.4 M3.8,1.7"/>
		<rect x="2.2" y="3.8" width="6.3" height="1.2" fill="currentColor"/>
		<rect x="0.2" y="3.8" height="13" width="10"></rect>
	</symbol>
	<symbol id="icon_x" overflow="visible" viewBox="0 0 8 8">
		<title>x - invalid</title>
			<g id="Symbols" stroke="none" stroke-width="1" fill="none" fill-rule="evenodd">
				<g id="column_summary_promo-applied-x2" transform="translate(-21.000000, -207.000000)" fill="currentColor">
					<polygon id="Fill-95" points="29 208.0864 27.9136 207 25 209.9136 22.0864 207 21 208.0864 23.9136 211 21 213.9136 22.0864 215 25 212.0864 27.9136 215 29 213.9136 26.0864 211"></polygon>
				</g>
			</g>
	</symbol>
	<use viewBox="0 0 8 8" id="icon_cross" xlink:href="#icon_x" />

	<symbol id="icon_check" overflow="visible" viewBox="0 0 8 8">
		<title>checkmark</title>
			<g id="Symbols" stroke="none" stroke-width="1" fill="none" fill-rule="evenodd">
				<g id="column_summary_promo-applied-x2" transform="translate(-20.000000, -192.000000)" fill="currentColor">
					<g id="discount" transform="translate(19.000000, 122.000000)">
						<g id="applied-1" transform="translate(1.000000, 69.000000)">
							<polygon id="icon_tick" points="4.06472727 9 0 4.944 0.992 3.91636364 4.05381818 6.97163636 9.90545455 1 10.9090909 2.016"></polygon>
						</g>
					</g>
				</g>
			</g>
	</symbol>
	<use viewBox="0 0 8 8" id="icon_checkmark" xlink:href="#icon_check" />

	<symbol id="icon_delivery" overflow="visible" viewBox="0 0 19 14">
		<title>delivery</title>
			<g id="mvp" stroke="none" stroke-width="1" fill="none" fill-rule="evenodd">
        <g id="pdp_mvp_v1" transform="translate(-15.000000, -1112.000000)" fill="#1B1B1B">
            <g id="icon_delivery" transform="translate(15.000000, 1110.000000)">
                <path d="M17.3012,11.9978667 C17.3012,12.0977333 17.2088,12.1789333 17.0958667,12.1789333 L14.6132,12.1789333 C14.1848,11.7281333 13.5781333,11.4406667 12.8986667,11.4406667 C12.5393333,11.4406667 12.2024,11.5265333 11.8972,11.6684 L11.8972,5.66893333 L15.1750667,5.66893333 C15.2329333,5.66893333 15.2889333,5.6904 15.3272,5.72866667 L17.3012,7.67653333 L17.3012,11.9978667 Z M12.8986667,14.6457333 C12.362,14.6457333 11.9242667,14.2304 11.9242667,13.7198667 C11.9242667,13.2102667 12.362,12.7949333 12.8986667,12.7949333 C13.4362667,12.7949333 13.874,13.2102667 13.874,13.7198667 C13.874,14.2304 13.4362667,14.6457333 12.8986667,14.6457333 L12.8986667,14.6457333 Z M10.5317333,12.1789333 L5.9696,12.1789333 C5.5412,11.7281333 4.93453333,11.4406667 4.256,11.4406667 C3.57653333,11.4406667 2.96986667,11.7281333 2.5424,12.1789333 L1.57173333,12.1789333 C1.45786667,12.1789333 1.3664,12.0977333 1.3664,11.9978667 L1.3664,3.53626667 C1.3664,3.43546667 1.45786667,3.35426667 1.57173333,3.35426667 L10.3264,3.35426667 C10.4393333,3.35426667 10.5317333,3.43546667 10.5317333,3.53626667 L10.5317333,12.1789333 Z M4.256,14.6457333 C3.7184,14.6457333 3.2816,14.2304 3.2816,13.7198667 C3.2816,13.2102667 3.7184,12.7949333 4.256,12.7949333 C4.7936,12.7949333 5.2304,13.2102667 5.2304,13.7198667 C5.2304,14.2304 4.7936,14.6457333 4.256,14.6457333 L4.256,14.6457333 Z M18.466,6.91586667 L16.2904,4.76826667 C15.9982667,4.47893333 15.5913333,4.31373333 15.1750667,4.31373333 L11.8972,4.31373333 L11.8972,3.53626667 C11.8972,2.6888 11.1925333,2 10.3264,2 L1.57173333,2 C0.704666667,2 -1.77635684e-15,2.6888 -1.77635684e-15,3.53626667 L-1.77635684e-15,11.9978667 C-1.77635684e-15,12.8444 0.704666667,13.5341333 1.57173333,13.5341333 L1.9348,13.5341333 C1.9292,13.5966667 1.9152,13.6554667 1.9152,13.7198667 C1.9152,14.9761333 2.9652,16 4.256,16 C5.5468,16 6.59586667,14.9761333 6.59586667,13.7198667 C6.59586667,13.6554667 6.58186667,13.5966667 6.5772,13.5341333 L10.5774667,13.5341333 C10.5728,13.5966667 10.5588,13.6554667 10.5588,13.7198667 C10.5588,14.9761333 11.6078667,16 12.8986667,16 C14.1904,16 15.2404,14.9761333 15.2404,13.7198667 C15.2404,13.6554667 15.2254667,13.5966667 15.2208,13.5341333 L17.0958667,13.5341333 C17.962,13.5341333 18.6666667,12.8444 18.6666667,11.9978667 L18.6666667,7.3956 C18.6666667,7.21546667 18.5948,7.0428 18.466,6.91586667 L18.466,6.91586667 Z" id="Fill-161"></path>
            </g>
        </g>
    </g>
	</symbol>

	<symbol id="icon_pickup" overflow="visible" viewBox="0 0 18 14">
		<title>pickup</title>
			<g id="mvp" stroke="none" stroke-width="1" fill="none" fill-rule="evenodd">
        <g id="delivery-dates" transform="translate(-16.000000, -1146.000000)" fill="#1B1B1B">
            <g id="benefits" transform="translate(16.000000, 1110.000000)">
                <g id="pickup" transform="translate(0.000000, 34.500000)">
                    <g id="icon_store" transform="translate(0.000000, 1.500000)">
                        <path d="M16.8595875,0.00035 C17.2130875,0.00035 17.5000875,0.284725 17.5000875,0.636475 L17.5000875,0.636475 L17.5000875,13.364225 C17.5000875,13.7151 17.2130875,14.00035 16.8595875,14.00035 L16.8595875,14.00035 L0.6397125,14.00035 C0.2870875,14.00035 8.75e-05,13.7151 8.75e-05,13.364225 L8.75e-05,13.364225 L8.75e-05,0.636475 C8.75e-05,0.284725 0.2870875,0.00035 0.6397125,0.00035 L0.6397125,0.00035 Z M16.2190875,1.2726 L1.2810875,1.2726 L1.2810875,12.727225 L3.2437125,12.727225 L3.2437125,7.42385 C3.2437125,7.072975 3.5307125,6.787725 3.8833375,6.787725 L3.8833375,6.787725 L13.6159625,6.787725 C13.9694625,6.787725 14.2564625,7.072975 14.2564625,7.42385 L14.2564625,7.42385 L14.2564625,12.727225 L16.2190875,12.727225 L16.2190875,1.2726 Z M12.9754625,8.06085 L9.1770875,8.06085 L9.1770875,12.727225 L12.9754625,12.727225 L12.9754625,8.06085 Z M8.3230875,8.06085 L4.5247125,8.06085 L4.5247125,12.727225 L8.3230875,12.727225 L8.3230875,8.06085 Z M14.497875,2.333625 L14.497875,4.879 L11.93675,4.879 L11.93675,2.333625 L14.497875,2.333625 Z" id="Combined-Shape"></path>
                    </g>
                </g>
            </g>
        </g>
    </g>
	</symbol>

	<symbol id="icon_reload" overflow="visible" viewBox="0 0 16 17">
		<title>icon reload</title>
		<path fill="gray" fill-rule="evenodd" d="M8 .486v1.457A6.56 6.56 0 0 1 14.545 8.5c0 2.606-1.55 4.936-3.868 5.98l.012-2.1-1.454-.01-.023 3.864c-.001.192.075.38.2.516a.73.73 0 0 0 .513.216l3.88.023.008-1.457-2-.012C14.353 14.15 16 11.47 16 8.5A8.02 8.02 0 0 0 8 .486zM1.455 8.5c0-2.612 1.564-4.95 3.896-5.987L5.338 4.6h1.455L6.816.746c.001-.192-.074-.38-.2-.516a.73.73 0 0 0-.512-.216L2.214 0l-.01 1.457 1.964.012C1.65 2.852 0 5.533 0 8.5a8.02 8.02 0 0 0 8 8.014v-1.457A6.56 6.56 0 0 1 1.455 8.5"/>
    </symbol>
	<use viewBox="0 0 16 17" id="icon_reload" xlink:href="#icon_reload" />

	<symbol id="icon_check2" overflow="visible" viewBox="0 0 9 7">
		<title>checkmark</title>
		<polygon fill="#1b1b1b" points="8.2,0 3.3,5.2 0.8,2.6 0,3.5 3.4,7 9,0.9 "/>
	</symbol>
	<use viewBox="0 0 9 7" id="icon_checkmark2" xlink:href="#icon_check2" />


	<symbol id="icon_arrow-symbol" overflow="visible" viewBox="0 0 12 7">
		<title>arrow down</title>
		<g fill="none" fill-rule="evenodd">
			<g transform="translate(-259 -107)" fill="#808080">
				<g transform="translate(19 101)">
					<polygon points="246 13 240 7.387 241.15 6 246 10.541 250.85 6 252 7.387"/>
				</g>
			</g>
		</g>
	</symbol>
	<use viewBox="0 0 12 7" id="icon_arrow_down" xlink:href="#icon_arrow-symbol" />

	<symbol id="icon_arrow-symbol-red" overflow="visible" viewBox="0 0 12 7">
		<title>arrow down</title>
		<g fill="none" fill-rule="evenodd">
			<g transform="translate(-259 -107)" fill="#FE0E0D">
				<g transform="translate(19 101)">
					<polygon points="246 13 240 7.387 241.15 6 246 10.541 250.85 6 252 7.387"/>
				</g>
			</g>
		</g>
	</symbol>
	<use viewBox="0 0 12 7" id="icon_arrow_down_error" xlink:href="#icon_arrow-symbol-red" />

	<symbol id="icon_signout-symbol" overflow="visible" viewBox="0 0 15 12">
		<title>Logout Icon</title>
		<path fill="#808080" d="M15,1.8c0-1-0.8-1.8-1.7-1.8H1.7C0.8,0,0,0.8,0,1.8V12h1.3V1.4h12.4V12H15V1.8z"/>
		<path fill="#808080" d="M4.2,7.9C4.1,8.1,4,8.2,4,8.4s0.1,0.4,0.2,0.5L7,11.8c0.3,0.3,0.7,0.3,1,0l2.8-2.9c0.3-0.3,0.3-0.7,0-1
	s-0.7-0.3-1,0L8.2,9.5V4H6.8v5.5L5.2,7.9C4.9,7.6,4.5,7.6,4.2,7.9z"/>
    </symbol>
	<use viewBox="0 0 12 15" id="icon_signout" xlink:href="#icon_signout-symbol" />



	<symbol id="icon_arrow-symbol2" overflow="visible" viewBox="0 0 12 7">
		<title>arrow right</title>
		<g id="1---Initial" stroke="none" stroke-width="1" fill="none" fill-rule="evenodd" transform="translate(-772.000000, -607.000000)">
			<g id="LIGHTBOX" transform="translate(-1.000000, -1.000000)" fill="#000000">
				<g id="BOX" transform="translate(31.000000, 117.000000)">
					<g id="pagination" transform="translate(610.000000, 491.000000)">
						<polygon id="icon_arrow-right" transform="translate(137.250000, 10.500000) scale(-1, 1) translate(-137.250000, -10.500000) " points="140.4195 0 132 10.5 140.4195 21 142.5 18.9975 135.6885 10.5 142.5 2.0055"></polygon>
					</g>
				</g>
			</g>
    	</g>
	</symbol>
	<use viewBox="0 0 11 21" id="icon_arrow_right" xlink:href="#icon_arrow-symbol2" />

	<symbol id="icon_arrow-thick" overflow="visible" viewBox="0 0 7 14">
		<title>arrow thick</title><!-- used in delivery select a store button -->
		<polygon id="Fill-29" points="7,7 1.386993408203125,14 0,12.66400146484375 4.540985107421875,7 0,1.33599853515625 1.386993408203125,0 "/>
	</symbol>

	<symbol id="icon_chatbot" overflow="visible" viewBox="0 0 21 17">
		<title>Icon Chatbot</title>
		<g fill="currentColor" fill-rule="evenodd">
			<path d="M10.76 5.294a1.23 1.23 0 1 1 0 2.462 1.23 1.23 0 0 1 0-2.462M14.996 5.294a1.23 1.23 0 1 1 0 2.462 1.23 1.23 0 0 1 0-2.462M6.524 5.294a1.23 1.23 0 1 1 .001 2.462 1.23 1.23 0 0 1 0-2.462"/>
			<path d="M1.588 12.028h1.72c.44 0 .795.356.795.794v1.743l3.09-2.373a.8.8 0 0 1 .483-.164H19.06V1.588H1.589v10.44zm1.72 4.942a.792.792 0 0 1-.793-.794v-2.56H.795A.794.794 0 0 1 0 12.822V.794C0 .356.356 0 .794 0h19.059c.438 0 .794.356.794.794v12.028a.794.794 0 0 1-.794.794H7.946l-4.153 3.19a.8.8 0 0 1-.484.164z"/>
		</g>
	</symbol>

	<symbol id="icon_magnifyingglass" overflow="visible" viewBox="0 0 18 18">
		<title>Submit Search</title>
		<path d="M1.57,7.589 C1.57,4.27 4.269,1.57 7.589,1.57 C10.908,1.57 13.608,4.27 13.608,7.589 C13.608,10.908 10.908,13.608 7.589,13.608 C4.269,13.608 1.57,10.908 1.57,7.589 M17.769,16.659 L13.477,12.367 C14.54,11.062 15.178,9.399 15.178,7.589 C15.178,3.404 11.774,0 7.589,0 C3.404,0 0,3.404 0,7.589 C0,11.774 3.404,15.178 7.589,15.178 C9.399,15.178 11.062,14.539 12.368,13.478 L16.66,17.77 C16.813,17.923 17.013,18 17.215,18 C17.416,18 17.616,17.923 17.769,17.77 C18.076,17.463 18.076,16.966 17.769,16.659"></path>
	</symbol>

	<symbol id="icon_search_grey" overflow="visible" viewBox="0 0 18 18">
		<title>Search</title>
		<path d="M1.57,7.589 C1.57,4.27 4.269,1.57 7.589,1.57 C10.908,1.57 13.608,4.27 13.608,7.589 C13.608,10.908 10.908,13.608 7.589,13.608 C4.269,13.608 1.57,10.908 1.57,7.589 M17.769,16.659 L13.477,12.367 C14.54,11.062 15.178,9.399 15.178,7.589 C15.178,3.404 11.774,0 7.589,0 C3.404,0 0,3.404 0,7.589 C0,11.774 3.404,15.178 7.589,15.178 C9.399,15.178 11.062,14.539 12.368,13.478 L16.66,17.77 C16.813,17.923 17.013,18 17.215,18 C17.416,18 17.616,17.923 17.769,17.77 C18.076,17.463 18.076,16.966 17.769,16.659" fill="#808080"></path>
	</symbol>
	<use viewBox="0 0 18 18" id="icon_search" xlink:href="#icon_search_grey" />

	<symbol id="icon_fitanalytics" overflow="visible" viewBox="0 0 21 24">
		<title>Icon fit-analytics</title>
		<path d="M19.7,14.1L11,6.7V5.8c0,0,0-0.1,0.1-0.1c1.4-0.5,2.3-1.9,1.9-3.4c-0.2-1.1-1.2-1.9-2.3-2.1C9.8,0,8.8,0.3,8.1,1
			C7.5,1.5,7.2,2.2,7.2,3h1.7c0-0.3,0.1-0.6,0.4-0.9c0.3-0.3,0.7-0.4,1.1-0.3c0.5,0.1,0.8,0.5,0.9,0.9c0.2,0.7-0.3,1.3-0.8,1.5
			C9.8,4.4,9.3,5,9.3,5.8v0.9l-8.7,7.3C0.1,14.4-0.1,15,0,15.5c0.2,0.6,0.7,1,1.3,1h17.5c0.6,0,1.2-0.4,1.3-1
			C20.4,15,20.2,14.4,19.7,14.1z M2.2,14.9l7.9-6.7l7.9,6.7H2.2z"/>
		<path d="M18.6,18.4v3.9h-1.2v-1.7c-0.7-0.8-1.7-0.3-1.7,0.4v1.3h-1.5v-3.4c-0.7-0.8-1.7-0.3-1.7,0.4v3H11v-1.7
			c-0.7-0.8-1.7-0.3-1.7,0.4v1.3H7.8v-3.4c-0.7-0.8-1.7-0.3-1.7,0.4v3H4.6v-1.7c-0.7-0.8-1.7-0.3-1.7,0.4v1.3H1.7v-3.9H0V24h20.3v-5.5
			H18.6z"/>
	</symbol>

	<symbol id="icon_instore" overflow="visible" viewBox="0 0 11 14">
		<title>Icon check in store</title>
		<path d="M5.4,0C2.5,0,0,2.2,0,5c0,0.6,0.1,1.2,0.3,1.7l0,0.1c0,0.1,0.1,0.2,0.2,0.3L5,13.8C5.1,13.9,5.2,14,5.4,14
		c0.2,0,0.4-0.1,0.5-0.2l4.5-6.6c0.1-0.1,0.1-0.2,0.1-0.3l0.1-0.1c0.2-0.6,0.3-1.1,0.3-1.7C10.8,2.2,8.4,0,5.4,0z M9.5,6.3L9.5,6.4
		c0,0.1-0.1,0.1-0.1,0.2l-4,5.9L1.5,6.6c0-0.1-0.1-0.1-0.1-0.2l0-0.1C1.2,5.9,1.1,5.4,1.1,5c0-2.1,1.9-3.9,4.2-3.9c0,0,0.1,0,0.1,0
		h0c2.3,0,4.3,1.7,4.3,3.9C9.8,5.4,9.7,5.9,9.5,6.3z"/>
		<path d="M5.5,3.1C5,3.1,4.4,3.3,4,3.7C3.6,4,3.4,4.6,3.4,5.2c0,0.6,0.2,1.1,0.6,1.5c0.4,0.4,0.9,0.6,1.4,0.6h0.1
		c0.5,0,1-0.2,1.4-0.6c0.4-0.4,0.6-0.9,0.6-1.5C7.4,4.1,6.6,3.2,5.5,3.1z M6.1,5.9C5.9,6,5.7,6.1,5.4,6.1c0,0,0,0,0,0h0
		c-0.2,0-0.5-0.1-0.6-0.3C4.6,5.7,4.5,5.5,4.5,5.2c0-0.3,0.1-0.5,0.3-0.7C5,4.3,5.2,4.2,5.5,4.2c0.5,0,0.9,0.4,0.9,0.9
		C6.4,5.5,6.2,5.7,6.1,5.9z"/>
	</symbol>

	<symbol id="icon_store" overflow="visible" viewBox="0 0 19 24">
		<title>Icon store pin</title>
		<path  d="M9.5,0c-5,0-9.2,3.7-9.3,8.6c0,1,0.2,2,0.6,3l0.1,0.2C1,11.9,1,12,1.2,12.3c1,1.9,3.5,5.7,7.5,11.3
	C8.9,23.8,9.2,24,9.5,24s0.6-0.2,0.8-0.4c4.1-5.8,6.6-9.5,7.5-11.2l0.1-0.1c0.1-0.2,0.2-0.3,0.2-0.5l0.1-0.2c0.4-0.9,0.6-1.9,0.6-3
	C18.7,3.7,14.5,0,9.5,0z M11.7,10.9c-0.6,0.6-1.3,0.9-2.1,0.9H9.5c-0.8,0-1.6-0.3-2.1-0.9c-0.6-0.6-1-1.4-1-2.3c0-1,0.4-1.8,1.1-2.4
	C8,5.5,8.8,5.2,9.6,5.3c1.6,0.1,3,1.5,3,3.2C12.6,9.4,12.3,10.2,11.7,10.9z"/>
	</symbol>

	<symbol id="icon_wishlistHeart" overflow="visible" viewBox="0 -1 29 31">
		<title>icon_wishlist</title>
		<path d="M21.5,1c-2.6,0-4.9,1.6-6.5,3.7C13.4,2.6,11.1,1,8.5,1C7.8,1,7.1,1.1,6.3,1.4
			C2,2.8,0,7.5,1.5,12.6C3,17.2,8,21.8,13,26.2l2,1.8l2-1.8c4.9-4.4,10-9,11.4-13.6c1.6-5.1-0.4-9.8-4.8-11.3C22.9,1.1,22.2,1,21.5,1"></path>
	</symbol>
	<use viewBox="0 -1 29 31" id="icon_heart" xlink:href="#icon_wishlistHeart" />

	<symbol id="icon_wishlistHeartStroke" overflow="visible" viewBox="0 -1 29 31">
		<title>icon_wishlist</title>
		<path d="M21.5,1c-2.6,0-4.9,1.6-6.5,3.7C13.4,2.6,11.1,1,8.5,1C7.8,1,7.1,1.1,6.3,1.4
			C2,2.8,0,7.5,1.5,12.6C3,17.2,8,21.8,13,26.2l2,1.8l2-1.8c4.9-4.4,10-9,11.4-13.6c1.6-5.1-0.4-9.8-4.8-11.3C22.9,1.1,22.2,1,21.5,1" fill="none" stroke="currentColor" stroke-width="3"></path>
	</symbol>
	<use viewBox="0 -1 29 31" id="icon_heartStroke" xlink:href="#icon_wishlistHeartStroke" />

	<symbol id="icon_filters" overflow="visible" viewBox="0 0 18 11">
		<title>icon_filters</title>
		<path d="M17.3,7.4h-9c-0.1,0-0.3,0-0.3,0c0,0-5,0-5,0H0v1.5h2.9H8c0,0,0.1,0,0.2,0h9c0.4,0,0.8-0.3,0.8-0.8S17.7,7.4,17.3,7.4z"/>
		<path d="M15,2.4c0,0-5,0-5,0c0,0-0.2,0-0.3,0h-9C0.3,2.4,0,2.8,0,3.2s0.3,0.8,0.8,0.8h9c0.1,0,0.2,0,0.2,0h5.2H18V2.4H15z"/>
		<circle style="transition: all 0.5s; transform: translateX(calc(var(--flipped) * -1))" fill="white" stroke="currentColor" stroke-width="1.5" cx="13" cy="8" r="2"/>
		<circle style="transition: all 0.5s; transform: translateX(var(--flipped))" fill="white" stroke="currentColor" stroke-width="1.5" cx="5" cy="3" r="2"/>
	</symbol>

	<symbol id="icon_giftbox" overflow="visible" viewBox="0 0 14 14">
		<title>icon_giftbox</title>
		<g stroke="none" stroke-width="1" fill="none" fill-rule="evenodd">
			<g transform="translate(-716.000000, -531.000000)" fill="currentColor">
				<path d="M723.777586,537.222094 L728.444349,537.222094 L728.444349,535.666379 L723.777586,535.666379 L723.777586,537.222094 Z M723.777618,543.444285 L727.666667,543.444285 L727.666667,538.777906 L723.777618,538.777906 L723.777618,543.444285 Z M723.777586,533.333621 C723.777586,532.897816 724.120006,532.554852 724.555332,532.554852 C724.990977,532.554852 725.332918,532.897816 725.332918,533.333621 C725.332918,533.768467 724.990977,534.110663 724.555332,534.110663 L723.777586,534.110663 L723.777586,533.333621 Z M722.221934,534.110663 L721.444349,534.110663 C721.008607,534.110663 720.666667,533.768467 720.666667,533.333621 C720.666667,532.897816 721.008607,532.554852 721.444349,532.554852 C721.879994,532.554852 722.221934,532.897816 722.221934,533.333621 L722.221934,534.110663 Z M717.555332,537.222094 L722.221934,537.222094 L722.221934,535.666379 L717.555332,535.666379 L717.555332,537.222094 Z M718.332918,543.444285 L722.221934,543.444285 L722.221934,538.777906 L718.332918,538.777906 L718.332918,543.444285 Z M726.888601,533.333621 C726.888601,532.042165 725.846628,531 724.555332,531 C723.964323,531 723.419559,531.232726 723,531.60636 C722.580026,531.232726 722.035325,531 721.444349,531 C720.152956,531 719.110983,532.042165 719.110983,533.333621 C719.110983,533.613679 719.157611,533.862107 719.250964,534.110663 L716,534.110663 L716,538.777906 L716.777586,538.777906 L716.777586,545 L729.221934,545 L729.221934,538.777906 L730,538.777906 L730,534.110663 L726.749036,534.110663 C726.842389,533.862107 726.888601,533.613679 726.888601,533.333621 Z" id="Fill-1-Copy"></path>
			</g>
		</g>
	</symbol>

	<symbol id="icon_edit" overflow="visible" viewBox="0 0 10 14">
		<title>pen_edit</title>
		<path id="Fill-197" d="M5.98 1.656l2.546 1.432.188-.34a.57.57 0 0 0-.217-.773l-1.561-.879a.561.561 0 0 0-.767.22l-.189.34zm2.741 2.641a.502.502 0 0 1-.246-.064L5.044 2.3a.51.51 0 0 1-.196-.696l.435-.788A1.572 1.572 0 0 1 7.429.2l1.561.878a1.602 1.602 0 0 1 .61 2.168l-.435.788a.508.508 0 0 1-.444.262z"/>
		<path id="Fill-198" d="M1.04 10.599l.429 2.203 2.119-.774 3.806-6.89-2.546-1.433-3.807 6.894zM1.086 14a.514.514 0 0 1-.497-.414L.01 10.612a.52.52 0 0 1 .055-.348L4.21 2.759a.505.505 0 0 1 .69-.198l3.432 1.931a.515.515 0 0 1 .196.697l-4.146 7.506a.51.51 0 0 1-.27.231L1.258 13.97a.492.492 0 0 1-.173.031z"/>
	</symbol>

	<symbol id="indicator_valid" overflow="visible" viewBox="0 0 15 11">
		<title>Valid</title>
		<path d="M5.59 11L0 5.423 1.364 4l4.2 4.2L13.62 0 15 1.397z" fill="currentColor" />
	</symbol>

	<symbol id="indicator_valid_green" overflow="visible" viewBox="0 0 15 11">
		<title>Valid</title>
		<path d="M5.59 11L0 5.423 1.364 4l4.2 4.2L13.62 0 15 1.397z" fill="#0C0" />
	</symbol>
	<use viewBox="0 0 15 11" id="icon_indicator_valid" xlink:href="#indicator_valid_green" />

	<symbol id="indicator_valid_black" overflow="visible" viewBox="0 0 15 11">
		<title>Valid</title>
		<path d="M5.59 11L0 5.423 1.364 4l4.2 4.2L13.62 0 15 1.397z" fill="#000000" />
	</symbol>
	<use viewBox="0 0 15 11" id="icon_checkbox" xlink:href="#indicator_valid_black" />

	<symbol id="indicator_invalid" overflow="visible" viewBox="0 0 10 10">
		<title>Invalid</title>
		<path d="M10 1.358L8.642 0 5 3.642 1.358 0 0 1.358 3.642 5 0 8.642 1.358 10 5 6.358 8.642 10 10 8.642 6.358 5z" fill="currentColor" />
	</symbol>

	<symbol id="indicator_invalid_red" overflow="visible" viewBox="0 0 10 10">
		<title>Invalid</title>
		<path d="M10 1.358L8.642 0 5 3.642 1.358 0 0 1.358 3.642 5 0 8.642 1.358 10 5 6.358 8.642 10 10 8.642 6.358 5z" fill="red" />
	</symbol>
	<use viewBox="0 0 10 10" id="icon_indicator_invalid" xlink:href="#indicator_invalid_red" />

	<symbol id="indicator_pwHide" overflow="visible" viewBox="0 0 25 20">
		<title>Hide Password</title>
		<path d="M4.71994872,14.8817436 C4.79635897,14.9417436 4.88661538,14.9699487 4.97635897,14.9699487 C5.09687179,14.9699487 5.21687179,14.917641 5.29687179,14.8150769 C5.4394359,14.6391795 5.40917949,14.3807179 5.23276923,14.2381538 C4.9045641,13.9781538 4.58610256,13.6940513 4.28558974,13.3935385 L1.25071795,10.3586667 L4.38148718,7.2294359 C7.39020513,4.22020513 11.767641,3.19302564 15.802,4.5494359 C16.016359,4.61969231 16.2486667,4.50533333 16.3225128,4.29097436 C16.3948205,4.07661538 16.2784103,3.84225641 16.0640513,3.76994872 C11.7312308,2.31558974 7.03174359,3.41917949 3.80046154,6.64892308 L0.0907179487,10.3586667 L3.70661538,13.9740513 C4.02712821,14.2945641 4.36764103,14.5991795 4.71994872,14.8817436" id="Fill-1" fill="#231F20"></path>
		<path d="M4.71994872,14.8817436 C4.79635897,14.9417436 4.88661538,14.9699487 4.97635897,14.9699487 C5.09687179,14.9699487 5.21687179,14.917641 5.29687179,14.8150769 C5.4394359,14.6391795 5.40917949,14.3807179 5.23276923,14.2381538 C4.9045641,13.9781538 4.58610256,13.6940513 4.28558974,13.3935385 L1.25071795,10.3586667 L4.38148718,7.2294359 C7.39020513,4.22020513 11.767641,3.19302564 15.802,4.5494359 C16.016359,4.61969231 16.2486667,4.50533333 16.3225128,4.29097436 C16.3948205,4.07661538 16.2784103,3.84225641 16.0640513,3.76994872 C11.7312308,2.31558974 7.03174359,3.41917949 3.80046154,6.64892308 L0.0907179487,10.3586667 L3.70661538,13.9740513 C4.02712821,14.2945641 4.36764103,14.5991795 4.71994872,14.8817436 Z" id="Stroke-3" stroke="#231F20" stroke-width="0.25"></path>
		<path d="M20.7014872,6.64882051 C20.1466154,6.096 19.542,5.59702564 18.8989231,5.16625641 C18.7107179,5.04010256 18.4543077,5.09035897 18.327641,5.2785641 C18.2014872,5.46471795 18.2517436,5.72112821 18.4399487,5.84728205 C19.0389231,6.24779487 19.6061026,6.71497436 20.1209744,7.22933333 L23.1558462,10.2642051 L20.0245641,13.3934359 C16.9958462,16.4242051 12.4302051,17.4477949 8.39379487,16.001641 C8.1794359,15.9247179 7.94507692,16.0354872 7.86917949,16.2498462 C7.79328205,16.4621538 7.90302564,16.6965128 8.11738462,16.7749744 C9.42148718,17.241641 10.7799487,17.4677949 12.1281538,17.4677949 C15.2548205,17.4677949 18.3317436,16.2472821 20.6055897,13.9744615 L24.3153333,10.2642051 L20.7014872,6.64882051 Z" id="Fill-5" fill="#231F20"></path>
		<path d="M20.7014872,6.64882051 C20.1466154,6.096 19.542,5.59702564 18.8989231,5.16625641 C18.7107179,5.04010256 18.4543077,5.09035897 18.327641,5.2785641 C18.2014872,5.46471795 18.2517436,5.72112821 18.4399487,5.84728205 C19.0389231,6.24779487 19.6061026,6.71497436 20.1209744,7.22933333 L23.1558462,10.2642051 L20.0245641,13.3934359 C16.9958462,16.4242051 12.4302051,17.4477949 8.39379487,16.001641 C8.1794359,15.9247179 7.94507692,16.0354872 7.86917949,16.2498462 C7.79328205,16.4621538 7.90302564,16.6965128 8.11738462,16.7749744 C9.42148718,17.241641 10.7799487,17.4677949 12.1281538,17.4677949 C15.2548205,17.4677949 18.3317436,16.2472821 20.6055897,13.9744615 L24.3153333,10.2642051 L20.7014872,6.64882051 Z" id="Stroke-7" stroke="#231F20" stroke-width="0.25"></path>
		<path d="M12.6188205,15.038 C11.7352308,15.038 10.8757436,14.7928718 10.1285641,14.3287692 C9.93830769,14.2108205 9.68394872,14.2687692 9.56394872,14.4610769 C9.4434359,14.6533846 9.5034359,14.9056923 9.69574359,15.0262051 C10.571641,15.5708205 11.5829231,15.8595385 12.6188205,15.8595385 C15.6736923,15.8595385 18.1572821,13.3754359 18.1572821,10.3205641 C18.1572821,9.21851282 17.8352308,8.15492308 17.2239487,7.24364103 C17.0977949,7.0554359 16.8434359,7.00312821 16.6552308,7.12928205 C16.4670256,7.2554359 16.4167692,7.51184615 16.5429231,7.69851282 C17.0618974,8.4754359 17.3383077,9.38107692 17.3383077,10.3205641 C17.3383077,12.9226154 15.2208718,15.038 12.6188205,15.038" id="Fill-9" fill="#231F20"></path>
		<path d="M12.6188205,15.038 C11.7352308,15.038 10.8757436,14.7928718 10.1285641,14.3287692 C9.93830769,14.2108205 9.68394872,14.2687692 9.56394872,14.4610769 C9.4434359,14.6533846 9.5034359,14.9056923 9.69574359,15.0262051 C10.571641,15.5708205 11.5829231,15.8595385 12.6188205,15.8595385 C15.6736923,15.8595385 18.1572821,13.3754359 18.1572821,10.3205641 C18.1572821,9.21851282 17.8352308,8.15492308 17.2239487,7.24364103 C17.0977949,7.0554359 16.8434359,7.00312821 16.6552308,7.12928205 C16.4670256,7.2554359 16.4167692,7.51184615 16.5429231,7.69851282 C17.0618974,8.4754359 17.3383077,9.38107692 17.3383077,10.3205641 C17.3383077,12.9226154 15.2208718,15.038 12.6188205,15.038 Z" id="Stroke-11" stroke="#231F20" stroke-width="0.25"></path>
		<path d="M12.6188205,5.60317949 C13.466,5.60317949 14.2972821,5.82933333 15.020359,6.26010256 C15.2167692,6.37394872 15.4670256,6.30984615 15.5834359,6.116 C15.6998462,5.91958974 15.6352308,5.66882051 15.4393333,5.55292308 C14.5880513,5.04830769 13.6142051,4.78164103 12.6188205,4.78164103 C9.566,4.78164103 7.07984615,7.26779487 7.07984615,10.3206154 C7.07984615,11.176 7.27010256,11.9944615 7.64446154,12.7585641 C7.71471795,12.9026667 7.86087179,12.9867692 8.01317949,12.9867692 C8.07317949,12.9867692 8.13574359,12.9749744 8.19369231,12.9467692 C8.39574359,12.8467692 8.47984615,12.6001026 8.38189744,12.3980513 C8.0634359,11.7488205 7.90087179,11.0498462 7.90087179,10.3206154 C7.90087179,7.7185641 10.0183077,5.60317949 12.6188205,5.60317949" id="Fill-13" fill="#231F20"></path>
		<path d="M12.6188205,5.60317949 C13.466,5.60317949 14.2972821,5.82933333 15.020359,6.26010256 C15.2167692,6.37394872 15.4670256,6.30984615 15.5834359,6.116 C15.6998462,5.91958974 15.6352308,5.66882051 15.4393333,5.55292308 C14.5880513,5.04830769 13.6142051,4.78164103 12.6188205,4.78164103 C9.566,4.78164103 7.07984615,7.26779487 7.07984615,10.3206154 C7.07984615,11.176 7.27010256,11.9944615 7.64446154,12.7585641 C7.71471795,12.9026667 7.86087179,12.9867692 8.01317949,12.9867692 C8.07317949,12.9867692 8.13574359,12.9749744 8.19369231,12.9467692 C8.39574359,12.8467692 8.47984615,12.6001026 8.38189744,12.3980513 C8.0634359,11.7488205 7.90087179,11.0498462 7.90087179,10.3206154 C7.90087179,7.7185641 10.0183077,5.60317949 12.6188205,5.60317949 Z" id="Stroke-15" stroke="#231F20" stroke-width="0.25"></path>
		<path d="M22.498359,0.184 C22.338359,0.024 22.0798974,0.024 21.9193846,0.184 L2.84297436,19.2609231 C2.68297436,19.4209231 2.68297436,19.6814359 2.84297436,19.8419487 C2.92297436,19.9214359 3.02758974,19.9619487 3.13169231,19.9619487 C3.23784615,19.9619487 3.34194872,19.9214359 3.42194872,19.8419487 L22.498359,0.765025641 C22.6588718,0.604512821 22.6588718,0.344512821 22.498359,0.184" id="Fill-17" fill="#231F20"></path>
		<path d="M22.498359,0.184 C22.338359,0.024 22.0798974,0.024 21.9193846,0.184 L2.84297436,19.2609231 C2.68297436,19.4209231 2.68297436,19.6814359 2.84297436,19.8419487 C2.92297436,19.9214359 3.02758974,19.9619487 3.13169231,19.9619487 C3.23784615,19.9619487 3.34194872,19.9214359 3.42194872,19.8419487 L22.498359,0.765025641 C22.6588718,0.604512821 22.6588718,0.344512821 22.498359,0.184 Z" id="Stroke-19" stroke="#231F20" stroke-width="0.25"></path>
	</symbol>

	<symbol id="indicator_pwShow" overflow="visible" viewBox="0 0 25 20">
		<title>Show Password</title>
		<g transform="translate(0.000000, 3.000000)">
			<path d="M20.7410071,9.83348571 C16.1388107,14.4362 8.65007857,14.4362 4.0484,9.83348571 L1.26284643,7.04845 L3.96709643,4.34523571 C8.56929286,-0.255925 16.058025,-0.255925 20.6602214,4.34523571 L23.445775,7.13078929 L20.7410071,9.83348571 Z M21.2448821,3.75902143 C16.3210964,-1.16683571 8.30622143,-1.16683571 3.38088214,3.75902143 L0.0914535714,7.04845 L3.46373929,10.4207357 C5.92563214,12.8826286 9.16016786,14.1146107 12.3947036,14.1146107 C15.6313107,14.1146107 18.8658464,12.8826286 21.3277393,10.4207357 L24.61665,7.13078929 L21.2448821,3.75902143 Z" id="Fill-1" fill="#231F20"></path>
			<path d="M20.7410071,9.83348571 C16.1388107,14.4362 8.65007857,14.4362 4.0484,9.83348571 L1.26284643,7.04845 L3.96709643,4.34523571 C8.56929286,-0.255925 16.058025,-0.255925 20.6602214,4.34523571 L23.445775,7.13078929 L20.7410071,9.83348571 Z M21.2448821,3.75902143 C16.3210964,-1.16683571 8.30622143,-1.16683571 3.38088214,3.75902143 L0.0914535714,7.04845 L3.46373929,10.4207357 C5.92563214,12.8826286 9.16016786,14.1146107 12.3947036,14.1146107 C15.6313107,14.1146107 18.8658464,12.8826286 21.3277393,10.4207357 L24.61665,7.13078929 L21.2448821,3.75902143 Z" id="Stroke-3" stroke="#231F20" stroke-width="0.25"></path>
			<path d="M12.3420375,11.6338161 C9.8299125,11.6338161 7.78644821,9.59086964 7.78644821,7.07667321 C7.78644821,4.56403036 9.8299125,2.52108393 12.3420375,2.52108393 C14.8546804,2.52108393 16.8996982,4.56403036 16.8996982,7.07667321 C16.8996982,9.59086964 14.8567518,11.6338161 12.3420375,11.6338161 M12.3420375,1.69147679 C9.37264464,1.69147679 6.95735893,4.1067625 6.95735893,7.07667321 C6.95735893,10.0460661 9.37264464,12.4634232 12.3420375,12.4634232 C15.3119482,12.4634232 17.7293054,10.0460661 17.7293054,7.07667321 C17.7293054,4.1067625 15.3140196,1.69147679 12.3420375,1.69147679" id="Fill-5" fill="#231F20"></path>
			<path d="M12.3420375,11.6338161 C9.8299125,11.6338161 7.78644821,9.59086964 7.78644821,7.07667321 C7.78644821,4.56403036 9.8299125,2.52108393 12.3420375,2.52108393 C14.8546804,2.52108393 16.8996982,4.56403036 16.8996982,7.07667321 C16.8996982,9.59086964 14.8567518,11.6338161 12.3420375,11.6338161 Z M12.3420375,1.69147679 C9.37264464,1.69147679 6.95735893,4.1067625 6.95735893,7.07667321 C6.95735893,10.0460661 9.37264464,12.4634232 12.3420375,12.4634232 C15.3119482,12.4634232 17.7293054,10.0460661 17.7293054,7.07667321 C17.7293054,4.1067625 15.3140196,1.69147679 12.3420375,1.69147679 Z" id="Stroke-7" stroke="#231F20" stroke-width="0.25"></path>
		</g>
	</symbol>

	<symbol id="facebook_logo_blue" overflow="visible" viewBox="0 0 32 30">
		<title>Facebook Logo</title>
		<defs>
				<polygon id="path-1" points="0.540364583 0.5 29.7200521 0.5 29.7200521 27.5 0.540364583 27.5"></polygon>
		</defs>
		<g id="login_final" stroke="none" stroke-width="1" fill="none" fill-rule="evenodd">
			<g id="logo_fb" transform="translate(0.692708, 0.297872)">
				<mask id="mask-2" fill="white">
					<use xlink:href="#path-1"></use>
				</mask>
				<g id="Clip-2"></g>
				<path d="M28.109612,0.5 L2.15080467,0.5 C1.26129072,0.5 0.540364583,1.16707132 0.540364583,1.99013657 L0.540364583,26.0097623 C0.540364583,26.8327264 1.26129072,27.5 2.15080467,27.5 L16.1262103,27.5 L16.1262103,17.0441578 L12.3234726,17.0441578 L12.3234726,12.9692969 L16.1262103,12.9692969 L16.1262103,9.96423875 C16.1262103,6.47693475 18.4280573,4.57799697 21.7901926,4.57799697 C23.400742,4.57799697 24.7848677,4.68887203 25.1881884,4.73844208 L25.1881884,8.38295397 L22.8563849,8.3839656 C21.0279395,8.3839656 20.6738176,9.18791098 20.6738176,10.3676783 L20.6738176,12.9692969 L25.0346882,12.9692969 L24.4669343,17.0441578 L20.6738176,17.0441578 L20.6738176,27.5 L28.109612,27.5 C28.9990166,27.5 29.7200521,26.8327264 29.7200521,26.0097623 L29.7200521,1.99013657 C29.7200521,1.16707132 28.9990166,0.5 28.109612,0.5" id="Fill-1" fill="#415993" mask="url(#mask-2)"></path>
			</g>
		</g>
	</symbol>

	<symbol id="icon_location" overflow="visible" viewBox="0 0 14 18">
		<title>Location</title>
		<path d="M12.1606933,8.06626 L12.09416,8.20966 C12.0558267,8.30079333 12.0146267,8.38946 12.0080267,8.40932667 L6.95216,15.9273933 L1.94122667,8.48526 C1.89349333,8.39132667 1.84949333,8.29699333 1.81389333,8.21586 L1.76616,8.09926 C1.54982667,7.56706 1.44022667,7.00879333 1.43836,6.45719333 C1.49362667,3.71286 3.90682667,1.51546 6.83789333,1.51546 C6.87162667,1.51546 6.90629333,1.51592667 6.93996,1.51639333 L6.96436,1.51639333 C9.93569333,1.48292667 12.40976,3.67986 12.46596,6.43926 C12.46316,7.00972667 12.3544933,7.57126 12.1606933,8.06626 M6.95216,0.0666877934 C3.20822667,0.0465266667 0.0730266667,2.85886 -4e-05,6.44446 C0.00189333333,7.20039333 0.14796,7.94166 0.435426667,8.64992667 L0.490693333,8.78392667 C0.544026667,8.90659333 0.60116,9.02739333 0.706093333,9.22279333 L6.35656,17.6255933 C6.49049333,17.8243267 6.71336,17.94366 6.95216,17.94366 C7.19096,17.94366 7.41382667,17.8243267 7.54776,17.6255933 L13.23756,9.15719333 C13.30316,9.03406 13.3630267,8.90659333 13.40616,8.80332667 L13.47916,8.64526 C13.7582267,7.93792667 13.9014933,7.19806 13.9042933,6.42792667 C13.8322267,2.85832667 10.7016933,0.0413266667 6.95216,0.0666877934" id="Fill-1" fill="currentColor"></path>
		<path d="M7.76779333,8.42192762 C7.55332667,8.63046095 7.27619333,8.74466095 6.98772667,8.74466095 C6.97466,8.74466095 6.96246,8.74419429 6.95219333,8.74419429 L6.93812667,8.74419429 C6.62626,8.75599429 6.35566,8.63572762 6.13652667,8.42192762 C5.89586,8.18839429 5.76006,7.86792762 5.75259333,7.56172762 C5.76659333,7.20452762 5.91272667,6.87846095 6.16552667,6.64352762 C6.39686,6.42832762 6.68526,6.30612762 6.99899333,6.33019429 C7.61986,6.35612762 8.12552667,6.89732762 8.15079333,7.52066095 C8.14426,7.86792762 8.00846,8.18839429 7.76779333,8.42192762 M7.05892667,4.88159429 C6.37159333,4.85186095 5.70486,5.09959429 5.18979333,5.57852762 C4.65412667,6.07632762 4.34419333,6.76099429 4.31512667,7.54712762 C4.32826,8.28179429 4.62132667,8.96359429 5.13826,9.46566095 C5.62332667,9.93659429 6.25266,10.1941943 6.91566,10.1941943 L6.98866,10.1941943 C7.65072667,10.1941943 8.28099333,9.93659429 8.76606,9.46566095 C9.28299333,8.96359429 9.57606,8.28179429 9.58826,7.50606095 C9.53392667,6.09139429 8.42332667,4.93912762 7.05892667,4.88159429" id="Fill-4" fill="currentColor"></path>
	</symbol>

	<symbol id="icon_paypal" overflow="visible" viewBox="0 0 101 32">
		<title>PayPal</title>
		<path fill="#003087" d="M 12.237 2.8 L 4.437 2.8 C 3.937 2.8 3.437 3.2 3.337 3.7 L 0.237 23.7 C 0.137 24.1 0.437 24.4 0.837 24.4 L 4.537 24.4 C 5.037 24.4 5.537 24 5.637 23.5 L 6.437 18.1 C 6.537 17.6 6.937 17.2 7.537 17.2 L 10.037 17.2 C 15.137 17.2 18.137 14.7 18.937 9.8 C 19.237 7.7 18.937 6 17.937 4.8 C 16.837 3.5 14.837 2.8 12.237 2.8 Z M 13.137 10.1 C 12.737 12.9 10.537 12.9 8.537 12.9 L 7.337 12.9 L 8.137 7.7 C 8.137 7.4 8.437 7.2 8.737 7.2 L 9.237 7.2 C 10.637 7.2 11.937 7.2 12.637 8 C 13.137 8.4 13.337 9.1 13.137 10.1 Z"></path>
		<path fill="#003087" d="M 35.437 10 L 31.737 10 C 31.437 10 31.137 10.2 31.137 10.5 L 30.937 11.5 L 30.637 11.1 C 29.837 9.9 28.037 9.5 26.237 9.5 C 22.137 9.5 18.637 12.6 17.937 17 C 17.537 19.2 18.037 21.3 19.337 22.7 C 20.437 24 22.137 24.6 24.037 24.6 C 27.337 24.6 29.237 22.5 29.237 22.5 L 29.037 23.5 C 28.937 23.9 29.237 24.3 29.637 24.3 L 33.037 24.3 C 33.537 24.3 34.037 23.9 34.137 23.4 L 36.137 10.6 C 36.237 10.4 35.837 10 35.437 10 Z M 30.337 17.2 C 29.937 19.3 28.337 20.8 26.137 20.8 C 25.037 20.8 24.237 20.5 23.637 19.8 C 23.037 19.1 22.837 18.2 23.037 17.2 C 23.337 15.1 25.137 13.6 27.237 13.6 C 28.337 13.6 29.137 14 29.737 14.6 C 30.237 15.3 30.437 16.2 30.337 17.2 Z"></path>
		<path fill="#003087" d="M 55.337 10 L 51.637 10 C 51.237 10 50.937 10.2 50.737 10.5 L 45.537 18.1 L 43.337 10.8 C 43.237 10.3 42.737 10 42.337 10 L 38.637 10 C 38.237 10 37.837 10.4 38.037 10.9 L 42.137 23 L 38.237 28.4 C 37.937 28.8 38.237 29.4 38.737 29.4 L 42.437 29.4 C 42.837 29.4 43.137 29.2 43.337 28.9 L 55.837 10.9 C 56.137 10.6 55.837 10 55.337 10 Z"></path>
		<path fill="#009cde" d="M 67.737 2.8 L 59.937 2.8 C 59.437 2.8 58.937 3.2 58.837 3.7 L 55.737 23.6 C 55.637 24 55.937 24.3 56.337 24.3 L 60.337 24.3 C 60.737 24.3 61.037 24 61.037 23.7 L 61.937 18 C 62.037 17.5 62.437 17.1 63.037 17.1 L 65.537 17.1 C 70.637 17.1 73.637 14.6 74.437 9.7 C 74.737 7.6 74.437 5.9 73.437 4.7 C 72.237 3.5 70.337 2.8 67.737 2.8 Z M 68.637 10.1 C 68.237 12.9 66.037 12.9 64.037 12.9 L 62.837 12.9 L 63.637 7.7 C 63.637 7.4 63.937 7.2 64.237 7.2 L 64.737 7.2 C 66.137 7.2 67.437 7.2 68.137 8 C 68.637 8.4 68.737 9.1 68.637 10.1 Z"></path>
		<path fill="#009cde" d="M 90.937 10 L 87.237 10 C 86.937 10 86.637 10.2 86.637 10.5 L 86.437 11.5 L 86.137 11.1 C 85.337 9.9 83.537 9.5 81.737 9.5 C 77.637 9.5 74.137 12.6 73.437 17 C 73.037 19.2 73.537 21.3 74.837 22.7 C 75.937 24 77.637 24.6 79.537 24.6 C 82.837 24.6 84.737 22.5 84.737 22.5 L 84.537 23.5 C 84.437 23.9 84.737 24.3 85.137 24.3 L 88.537 24.3 C 89.037 24.3 89.537 23.9 89.637 23.4 L 91.637 10.6 C 91.637 10.4 91.337 10 90.937 10 Z M 85.737 17.2 C 85.337 19.3 83.737 20.8 81.537 20.8 C 80.437 20.8 79.637 20.5 79.037 19.8 C 78.437 19.1 78.237 18.2 78.437 17.2 C 78.737 15.1 80.537 13.6 82.637 13.6 C 83.737 13.6 84.537 14 85.137 14.6 C 85.737 15.3 85.937 16.2 85.737 17.2 Z"></path>
		<path fill="#009cde" d="M 95.337 3.3 L 92.137 23.6 C 92.037 24 92.337 24.3 92.737 24.3 L 95.937 24.3 C 96.437 24.3 96.937 23.9 97.037 23.4 L 100.237 3.5 C 100.337 3.1 100.037 2.8 99.637 2.8 L 96.037 2.8 C 95.637 2.8 95.437 3 95.337 3.3 Z"></path>
	</symbol>

	<symbol id="icon_paywithgoogle" overflow="visible" viewBox="0 0 40 26">
		<title>Google Pay</title>
		<rect width="39" height="25" x=".5" y=".5" fill="#fff" stroke="#3c4043" rx="2.5"/>
		<path fill="#3c4043" d="M19.26 13.6v3.7h-1.14V8.17h3.02c.73-.02 1.44.27 1.95.8a2.7 2.7 0 01.13 3.73l-.13.13a2.7 2.7 0 01-1.95.78h-1.88zm0-4.32v3.2h1.9c.43.01.84-.16 1.13-.48.6-.63.59-1.65-.03-2.27-.3-.29-.68-.45-1.1-.45zm7.28 1.56c.84 0 1.5.24 2 .7.49.46.73 1.1.73 1.9v3.87h-1.1v-.87h-.04a2.16 2.16 0 01-1.89 1.07 2.4 2.4 0 01-1.67-.61 1.96 1.96 0 01-.68-1.53c0-.65.25-1.16.72-1.55a2.93 2.93 0 011.9-.58c.68 0 1.24.13 1.67.38v-.27c0-.4-.17-.78-.46-1.04a1.72 1.72 0 00-2.6.4l-1.01-.65a2.73 2.73 0 012.43-1.22zm-1.47 4.55c0 .3.14.59.37.76.26.2.57.32.89.31.48 0 .94-.2 1.28-.55.38-.36.57-.8.57-1.29a2.24 2.24 0 00-1.49-.43c-.46 0-.85.12-1.16.34-.3.23-.46.51-.46.86z"/>
		<g fill-rule="evenodd" clip-rule="evenodd">
			<path fill="#3c4043" d="M35.52 11.05l-3.8 9h-1.18l1.42-3.15-2.5-5.85h1.24l1.8 4.5h.02l1.77-4.5z"/>
			<path fill="#4285f4" d="M14.65 12.8c0-.36-.03-.72-.08-1.07H9.76v2.02h2.75a2.44 2.44 0 01-1.02 1.6v1.31h1.65a5.2 5.2 0 001.51-3.86z"/>
			<path fill="#34a853" d="M9.76 17.93a4.8 4.8 0 003.38-1.27l-1.65-1.3a3.06 3.06 0 01-4.6-1.66H5.22v1.34a5.08 5.08 0 004.55 2.9z"/>
			<path fill="#fbbc04" d="M6.9 13.69a3.26 3.26 0 010-2.02v-1.34H5.2a5.35 5.35 0 000 4.7z"/>
			<path fill="#ea4335" d="M9.76 9.5a2.7 2.7 0 011.95.8l1.46-1.5a4.84 4.84 0 00-3.41-1.37 5.08 5.08 0 00-4.55 2.9l1.69 1.35a3.06 3.06 0 012.86-2.17z"/>
		</g>
	</symbol>

	<symbol id="icon_applepay" overflow="visible" viewBox="0 0 40 26">
		<title>Apple Pay</title>
		<path d="M36.4179 0H3.58218C3.44543 0 3.30843 0 3.17192 0.000809701C3.05652 0.00164394 2.9414 0.00294437 2.82627 0.0061341C2.57518 0.0130288 2.32195 0.0280696 2.074 0.0733147C1.82209 0.119345 1.58768 0.194426 1.359 0.312643C1.13418 0.428724 0.928359 0.580555 0.749992 0.761732C0.571547 0.942909 0.422007 1.15154 0.307701 1.38005C0.191245 1.61224 0.117248 1.85031 0.0722267 2.10628C0.0274252 2.35809 0.0125122 2.61516 0.00574573 2.86982C0.00265247 2.98672 0.00132575 3.10361 0.000574187 3.22047C-0.000223295 3.35937 4.25324e-05 3.49818 4.25324e-05 3.63732V22.3629C4.25324e-05 22.5021 -0.000223295 22.6407 0.000574187 22.7798C0.00132575 22.8967 0.00265247 23.0136 0.00574573 23.1305C0.0125122 23.3849 0.0274252 23.642 0.0722267 23.8937C0.117248 24.1498 0.191245 24.3878 0.307701 24.62C0.422007 24.8485 0.571547 25.0574 0.749992 25.2383C0.928359 25.4198 1.13418 25.5716 1.359 25.6874C1.58768 25.8059 1.82209 25.881 2.074 25.927C2.32195 25.972 2.57518 25.9873 2.82627 25.9942C2.9414 25.9968 3.05652 25.9984 3.17192 25.9989C3.30843 26 3.44543 26 3.58218 26H36.4179C36.5544 26 36.6914 26 36.8279 25.9989C36.943 25.9984 37.0581 25.9968 37.1738 25.9942C37.4243 25.9873 37.6775 25.972 37.9261 25.927C38.1776 25.881 38.4121 25.8059 38.6408 25.6874C38.8659 25.5716 39.0711 25.4198 39.2498 25.2383C39.428 25.0574 39.5775 24.8485 39.6921 24.62C39.8088 24.3878 39.8827 24.1498 39.9275 23.8937C39.9724 23.642 39.9869 23.3849 39.9937 23.1305C39.9969 23.0136 39.9984 22.8967 39.9989 22.7798C40 22.6407 40 22.5021 40 22.3629V3.63732C40 3.49818 40 3.35937 39.9989 3.22047C39.9984 3.10361 39.9969 2.98672 39.9937 2.86982C39.9869 2.61516 39.9724 2.35809 39.9275 2.10628C39.8827 1.85031 39.8088 1.61224 39.6921 1.38005C39.5775 1.15154 39.428 0.942909 39.2498 0.761732C39.0711 0.580555 38.8659 0.428724 38.6408 0.312643C38.4121 0.194426 38.1776 0.119345 37.9261 0.0733147C37.6775 0.0280696 37.4243 0.0130288 37.1738 0.0061341C37.0581 0.00294437 36.943 0.00164394 36.8279 0.000809701C36.6914 0 36.5544 0 36.4179 0Z" fill="black"/>
		<path d="M36.4178 0.866577L36.8217 0.867362C36.9312 0.868147 37.0406 0.86935 37.1506 0.872392C37.342 0.877643 37.5659 0.888169 37.7746 0.926151C37.956 0.959325 38.1082 1.00977 38.2542 1.08525C38.3983 1.15962 38.5304 1.25707 38.6457 1.37399C38.7615 1.49169 38.8576 1.626 38.9318 1.77398C39.0057 1.92108 39.0551 2.07482 39.0876 2.26037C39.1249 2.46996 39.1352 2.6979 39.1405 2.89343C39.1434 3.00379 39.1449 3.11416 39.1454 3.22715C39.1464 3.36379 39.1464 3.50036 39.1464 3.63727V22.3629C39.1464 22.4998 39.1464 22.6361 39.1454 22.7757C39.1449 22.886 39.1434 22.9964 39.1404 23.107C39.1352 23.3022 39.1249 23.53 39.0871 23.7421C39.0551 23.9251 39.0058 24.0789 38.9314 24.2267C38.8574 24.3743 38.7615 24.5085 38.6462 24.6254C38.5302 24.7432 38.3986 24.8404 38.2527 24.9154C38.1078 24.9905 37.9559 25.0409 37.7763 25.0738C37.5634 25.1123 37.3301 25.1229 37.1544 25.1277C37.0439 25.1302 36.9339 25.1318 36.8212 25.1323C36.6869 25.1334 36.5521 25.1333 36.4178 25.1333H3.58214C3.58035 25.1333 3.57861 25.1333 3.57679 25.1333C3.44403 25.1333 3.31099 25.1333 3.17581 25.1323C3.06558 25.1318 2.9556 25.1303 2.84927 25.1278C2.66957 25.1229 2.43615 25.1123 2.22497 25.074C2.0438 25.0409 1.89191 24.9905 1.74508 24.9144C1.60059 24.84 1.46905 24.743 1.35303 24.625C1.2379 24.5083 1.14223 24.3745 1.06826 24.2267C0.994211 24.079 0.94467 23.9248 0.912097 23.7396C0.874444 23.528 0.8641 23.301 0.858931 23.1071C0.855981 22.9961 0.854748 22.8851 0.854047 22.7747L0.853516 22.4489L0.85354 22.3629V3.63727L0.853516 3.55125L0.854023 3.22612C0.854748 3.11509 0.855981 3.00409 0.858931 2.89316C0.8641 2.69905 0.874443 2.47204 0.912408 2.25862C0.944694 2.07512 0.994211 1.92088 1.06864 1.77246C1.14203 1.62576 1.23788 1.49184 1.35361 1.37436C1.46888 1.25727 1.60085 1.15993 1.74626 1.08485C1.89152 1.00975 2.0437 0.959325 2.22487 0.926225C2.43362 0.888145 2.65766 0.877643 2.84954 0.872368C2.95892 0.86935 3.06829 0.868147 3.17685 0.867387L3.58214 0.866577H36.4178" fill="white"/>
		<path d="M10.9197 8.61284C11.2622 8.18445 11.4946 7.60926 11.4333 7.02148C10.9319 7.04641 10.3201 7.35225 9.96589 7.78097C9.64785 8.1481 9.36635 8.74738 9.43974 9.31051C10.0025 9.35933 10.5648 9.0292 10.9197 8.61284Z" fill="black"/>
		<path d="M11.4268 9.4205C10.6095 9.37181 9.91457 9.88437 9.52426 9.88437C9.13373 9.88437 8.53603 9.44503 7.88957 9.45687C7.04816 9.46923 6.26743 9.94497 5.84045 10.7016C4.96223 12.2153 5.60869 14.4606 6.46272 15.6934C6.87745 16.3033 7.37728 16.9748 8.03587 16.9507C8.65813 16.9263 8.90204 16.5478 9.65842 16.5478C10.4143 16.5478 10.634 16.9507 11.2927 16.9385C11.9758 16.9263 12.4028 16.3283 12.8175 15.7178C13.2933 15.0225 13.4881 14.3512 13.5003 14.3144C13.4881 14.3022 12.1831 13.8015 12.171 12.3005C12.1587 11.0436 13.1956 10.4457 13.2444 10.4087C12.6588 9.54268 11.744 9.44503 11.4268 9.4205Z" fill="black"/>
		<path d="M18.5433 7.71948C20.3197 7.71948 21.5567 8.944 21.5567 10.7268C21.5567 12.516 20.2943 13.7469 18.4988 13.7469H16.5319V16.8747H15.1108V7.71948H18.5433V7.71948ZM16.5319 12.554H18.1625C19.3997 12.554 20.1039 11.8879 20.1039 10.7332C20.1039 9.57853 19.3997 8.91867 18.1688 8.91867H16.5319V12.554Z" fill="black"/>
		<path d="M21.928 14.9778C21.928 13.8103 22.8226 13.0934 24.4088 13.0046L26.2359 12.8967V12.3829C26.2359 11.6405 25.7347 11.1964 24.8974 11.1964C24.1041 11.1964 23.6092 11.577 23.4888 12.1735H22.1945C22.2706 10.9679 23.2984 10.0797 24.948 10.0797C26.5659 10.0797 27.6 10.9362 27.6 12.2749V16.8748H26.2866V15.7771H26.255C25.8681 16.5195 25.0241 16.9889 24.1487 16.9889C22.8417 16.9889 21.928 16.1768 21.928 14.9778ZM26.2359 14.3751V13.8485L24.5926 13.9499C23.7742 14.0071 23.3111 14.3687 23.3111 14.9397C23.3111 15.5233 23.7933 15.9041 24.5292 15.9041C25.4872 15.9041 26.2359 15.2442 26.2359 14.3751Z" fill="black"/>
		<path d="M28.8398 19.3302V18.2199C28.9411 18.2452 29.1695 18.2452 29.2838 18.2452C29.9182 18.2452 30.2609 17.9788 30.4701 17.2936C30.4701 17.2809 30.5908 16.8876 30.5908 16.8812L28.1799 10.2003H29.6644L31.3522 15.6313H31.3774L33.0653 10.2003H34.5118L32.0118 17.2237C31.4411 18.8417 30.7812 19.3619 29.3981 19.3619C29.2838 19.3619 28.9411 19.3492 28.8398 19.3302Z" fill="black"/>
	</symbol>

	<symbol id="loading" overflow="visible" viewBox="0 0 100 100">
		<title>loading</title>
		<circle cx="50" cy="50" fill="none" stroke="#000000" stroke-width="10" r="40" stroke-dasharray="188.49555921538757 64.83185307179586" transform="rotate(203.502 50 50)">
	    <animateTransform attributeName="transform" type="rotate" calcMode="linear" values="0 50 50;360 50 50" keyTimes="0;1" dur="0.5s" begin="0s" repeatCount="indefinite"></animateTransform>
	  </circle>
	</symbol>
	<use viewBox="0 0 100 100" id="icon_loading" xlink:href="#loading" />

	<symbol id="icon_lock" overflow="visible" viewBox="0 0 16 22">
		<title>lock</title>
		<path d="M14.3017222,16.4181111 C14.3017222,16.9923333 13.8372778,17.4588889 13.2662222,17.4588889 L2.56816667,17.4588889 C1.99711111,17.4588889 1.53161111,16.9923333 1.53161111,16.4181111 L1.53161111,8.50566667 L14.3017222,8.50566667 L14.3017222,16.4181111 Z M5.10783333,4.08394444 C5.10783333,2.68111111 6.36711111,1.54005556 7.91666667,1.54005556 C9.46622222,1.54005556 10.7255,2.68111111 10.7255,4.08394444 L10.7255,6.96561111 L5.10783333,6.96561111 L5.10783333,4.08394444 Z M15.0680556,6.96561111 L12.2581667,6.96561111 L12.2581667,4.08394444 C12.2581667,1.83138889 10.3117222,0 7.91666667,0 C5.52266667,0 3.57516667,1.83138889 3.57516667,4.08394444 L3.57516667,6.96561111 L0.766333333,6.96561111 C0.343055556,6.96561111 0,7.31077778 0,7.73616667 L0,16.4181111 C0,17.8420556 1.15266667,19 2.56816667,19 L13.2662222,19 C14.6806667,19 15.8333333,17.8420556 15.8333333,16.4181111 L15.8333333,7.73616667 C15.8333333,7.31077778 15.4902778,6.96561111 15.0680556,6.96561111 Z" id="Fill-78" fill="#FFFFFF"></path>
		<path d="M7.66100825,14.7598073 C8.48561282,14.7598073 9.15290504,14.081335 9.15290504,13.2438943 C9.15290504,12.4054147 8.48561282,11.7269423 7.66100825,11.7269423 C6.83640369,11.7269423 6.16911146,12.4054147 6.16911146,13.2438943 C6.16911146,14.081335 6.83640369,14.7598073 7.66100825,14.7598073" id="Fill-79" fill="#FFFFFF"></path>
	</symbol>

	<symbol id="icon_attach" overflow="visible" viewBox="0 0 15 24">
		<title>icon_attach</title>
		<path d="M7.5,24 C3.36401367,24 0,20.6359863 0,16.5 L0,6 C0,5.44702148 0.448059094,5.00006105 0.999938953,5.00006105 C1.55200195,5.00006105 2.00006105,5.44702148 2.00006105,6 L2.00006105,16.5 C2.00006105,19.5320435 4.46704102,21.999939 7.5,21.999939 C10.532959,21.999939 12.999939,19.5320435 12.999939,16.5 L12.999939,5.49993895 C12.999939,3.57000731 11.4299927,2.00006105 9.50006105,2.00006105 C7.56994631,2.00006105 6,3.57000731 6,5.49993895 L6,15.500061 C6,16.3269653 6.67291261,17.000061 7.5,17.000061 C8.32708739,17.000061 9,16.3269653 9,15.500061 L9,6 C9,5.44702148 9.44805909,5.00006105 9.99993895,5.00006105 C10.552002,5.00006105 11.000061,5.44702148 11.000061,6 L11.000061,15.500061 C11.000061,17.4299927 9.42993164,18.999939 7.5,18.999939 C5.57006836,18.999939 3.99993895,17.4299927 3.99993895,15.500061 L3.99993895,5.49993895 C3.99993895,2.46807862 6.46691897,-1.33226763e-15 9.50006105,-1.33226763e-15 C12.53302,-1.33226763e-15 15,2.46807862 15,5.49993895 L15,16.5 C15,20.6359863 11.6359863,24 7.5,24 Z" id="Path"></path>
	</symbol>
	<use viewBox="0 0 15 24" id="attach_small" xlink:href="#icon_attach" />
	
	<symbol id="icon_map" overflow="visible" viewBox="0 0 24 24">
		<title>icon_map</title>
		<g fill="none" stroke="currentColor" stroke-width="1">
			<polygon points="1 6 1 22 8 18 16 22 23 18 23 2 16 6 8 2 1 6"/>
			<line x1="8" x2="8" y1="2" y2="18"/>
			<line x1="16" x2="16" y1="6" y2="22"/>
		</g>
	</symbol>
	
	<symbol id="icon_list" overflow="visible" viewBox="0 0 18 10">
		<title>icon_listView</title>
		<path fill="currentColor" d="M0,6 L2,6 L2,4 L0,4 L0,6 L0,6 Z M0,10 L2,10 L2,8 L0,8 L0,10 L0,10 Z M0,2 L2,2 L2,0 L0,0 L0,2 L0,2 Z M4,6 L18,6 L18,4 L4,4 L4,6 L4,6 Z M4,10 L18,10 L18,8 L4,8 L4,10 L4,10 Z M4,0 L4,2 L18,2 L18,0 L4,0 L4,0 Z"/>
	</symbol>

</svg>
